<svg width="261" height="82" viewBox="0 0 261 82" fill="none" xmlns="http://www.w3.org/2000/svg">
<path d="M194.909 57.5733V3.83838H220.779C225.794 3.83838 230.118 4.6572 233.752 6.29483C237.437 7.93247 240.277 10.2866 242.273 13.3571C244.268 16.3765 245.266 19.9589 245.266 24.1041C245.266 28.2494 244.268 31.8317 242.273 34.8511C240.277 37.8193 237.437 40.0966 233.752 41.6831C230.118 43.2696 225.794 44.0628 220.779 44.0628H204.965L213.026 36.6167V57.5733H194.909ZM227.073 57.5733L213.87 37.9984H233.061L246.418 57.5733H227.073ZM213.026 38.6125L204.965 30.3988H219.627C222.135 30.3988 223.977 29.8358 225.154 28.71C226.382 27.5841 226.997 26.0488 226.997 24.1041C226.997 22.1594 226.382 20.6241 225.154 19.4983C223.977 18.3724 222.135 17.8095 219.627 17.8095H204.965L213.026 9.59569V38.6125Z" fill="white"/>
<path d="M159.839 23.7971H183.79V36.847H159.839V23.7971ZM161.068 43.9093H187.935V57.5733H143.258V3.83838H186.937V17.5024H161.068V43.9093Z" fill="white"/>
<path d="M100.922 57.5733L78.2002 3.83838H97.6983L116.198 49.206H104.607L123.645 3.83838H141.454L118.732 57.5733H100.922Z" fill="white"/>
<path d="M57.1982 57.5733V3.83838H75.3146V57.5733H57.1982Z" fill="white"/>
<path d="M0 57.5733V3.83838H25.8695C30.8848 3.83838 35.2092 4.6572 38.8427 6.29483C42.5273 7.93247 45.3676 10.2866 47.3635 13.3571C49.3594 16.3765 50.3573 19.9589 50.3573 24.1041C50.3573 28.2494 49.3594 31.8317 47.3635 34.8511C45.3676 37.8193 42.5273 40.0966 38.8427 41.6831C35.2092 43.2696 30.8848 44.0628 25.8695 44.0628H10.0561L18.1163 36.6167V57.5733H0ZM32.1642 57.5733L18.9607 37.9984H38.1518L51.5088 57.5733H32.1642ZM18.1163 38.6125L10.0561 30.3988H24.7181C27.2257 30.3988 29.068 29.8358 30.2451 28.71C31.4733 27.5841 32.0874 26.0488 32.0874 24.1041C32.0874 22.1594 31.4733 20.6241 30.2451 19.4983C29.068 18.3724 27.2257 17.8095 24.7181 17.8095H10.0561L18.1163 9.59569V38.6125Z" fill="white"/>
<circle cx="253.963" cy="7.03671" r="7.03671" fill="#F41240"/>
<path d="M240.581 76.6771L244.544 70.3151H246V78.5407H244.736V72.1787L240.795 78.5407H239.317V70.3151H240.581V76.6771ZM243.708 67.5732H244.886C244.886 68.1516 244.686 68.6247 244.287 68.9924C243.887 69.3601 243.344 69.544 242.659 69.544C241.984 69.544 241.446 69.3601 241.047 68.9924C240.65 68.6247 240.452 68.1516 240.452 67.5732H241.63C241.63 67.8517 241.707 68.0963 241.861 68.3069C242.018 68.5175 242.284 68.6229 242.659 68.6229C243.033 68.6229 243.301 68.5175 243.462 68.3069C243.626 68.0963 243.708 67.8517 243.708 67.5732Z" fill="white"/>
<path d="M231.583 76.6772L235.546 70.3152H237.002V78.5408H235.738V72.1788L231.797 78.5408H230.319V70.3152H231.583V76.6772Z" fill="white"/>
<path d="M227.215 70.3152V77.3627H228.372V81.197H227.108V78.5408H220.746V70.3152H222.01V77.3627H225.952V70.3152H227.215Z" fill="white"/>
<path d="M214.669 78.7335C214.148 78.7335 213.675 78.6353 213.25 78.439C212.825 78.2391 212.488 77.9517 212.238 77.5768C211.988 77.1984 211.863 76.7414 211.863 76.2059C211.863 75.7346 211.956 75.3526 212.142 75.0598C212.327 74.7635 212.576 74.5315 212.886 74.3637C213.197 74.1959 213.539 74.0709 213.914 73.9888C214.293 73.9031 214.673 73.8353 215.055 73.7853C215.555 73.721 215.96 73.6728 216.271 73.6407C216.585 73.605 216.813 73.5461 216.956 73.464C217.102 73.3819 217.176 73.2391 217.176 73.0356V72.9927C217.176 72.4643 217.031 72.0538 216.742 71.761C216.456 71.4683 216.023 71.3219 215.441 71.3219C214.837 71.3219 214.364 71.454 214.021 71.7182C213.679 71.9824 213.438 72.2644 213.298 72.5643L212.099 72.1359C212.313 71.6361 212.599 71.2469 212.956 70.9684C213.316 70.6864 213.709 70.49 214.134 70.3794C214.562 70.2651 214.984 70.208 215.398 70.208C215.662 70.208 215.965 70.2401 216.308 70.3044C216.654 70.3651 216.988 70.4918 217.31 70.6846C217.634 70.8774 217.904 71.1684 218.118 71.5575C218.332 71.9467 218.439 72.4679 218.439 73.1212V78.5407H217.176V77.4268H217.111C217.026 77.6054 216.883 77.7964 216.683 77.9999C216.483 78.2033 216.217 78.3765 215.885 78.5193C215.553 78.6621 215.148 78.7335 214.669 78.7335ZM214.862 77.5982C215.362 77.5982 215.783 77.5 216.126 77.3037C216.472 77.1073 216.733 76.8538 216.908 76.5432C217.086 76.2326 217.176 75.906 217.176 75.5632V74.4065C217.122 74.4708 217.004 74.5297 216.822 74.5832C216.644 74.6332 216.437 74.6778 216.201 74.7171C215.969 74.7528 215.742 74.7849 215.521 74.8135C215.303 74.8385 215.126 74.8599 214.991 74.8778C214.662 74.9206 214.355 74.9902 214.07 75.0866C213.788 75.1794 213.559 75.3205 213.384 75.5097C213.213 75.6953 213.127 75.9488 213.127 76.2701C213.127 76.7092 213.29 77.0413 213.614 77.2662C213.943 77.4875 214.359 77.5982 214.862 77.5982Z" fill="white"/>
<path d="M201.96 80.8971V77.3627H202.645C202.813 77.1877 202.958 76.9985 203.079 76.795C203.201 76.5915 203.306 76.3505 203.395 76.072C203.488 75.79 203.567 75.4473 203.631 75.0438C203.695 74.6368 203.752 74.146 203.802 73.5712L204.081 70.3152H209.307V77.3627H210.571V80.8971H209.307V78.5408H203.224V80.8971H201.96ZM204.081 77.3627H208.043V71.4933H205.259L205.045 73.5712C204.955 74.4316 204.845 75.1831 204.713 75.8257C204.58 76.4683 204.37 76.9806 204.081 77.3627Z" fill="white"/>
<path d="M199.566 73.8496V75.0278H195.025V73.8496H199.566ZM195.325 70.3152V78.5408H194.061V70.3152H195.325ZM200.53 70.3152V78.5408H199.267V70.3152H200.53Z" fill="white"/>
<path d="M188.733 78.7121C187.94 78.7121 187.257 78.5372 186.682 78.1873C186.111 77.8338 185.67 77.3412 185.359 76.7092C185.052 76.0738 184.898 75.3347 184.898 74.4922C184.898 73.6496 185.052 72.907 185.359 72.2644C185.67 71.6182 186.102 71.1148 186.655 70.7542C187.212 70.3901 187.862 70.208 188.604 70.208C189.033 70.208 189.456 70.2794 189.873 70.4222C190.291 70.565 190.671 70.7971 191.014 71.1184C191.357 71.4361 191.63 71.8574 191.833 72.3822C192.037 72.907 192.139 73.5532 192.139 74.3208V74.8563H185.798V73.7639H190.853C190.853 73.2998 190.761 72.8856 190.575 72.5215C190.393 72.1573 190.132 71.8699 189.793 71.6593C189.458 71.4486 189.061 71.3433 188.604 71.3433C188.101 71.3433 187.665 71.4683 187.298 71.7182C186.933 71.9645 186.653 72.2858 186.457 72.6821C186.26 73.0784 186.162 73.5033 186.162 73.9567V74.685C186.162 75.3062 186.269 75.8328 186.484 76.2648C186.701 76.6932 187.003 77.0198 187.389 77.2448C187.774 77.4661 188.222 77.5768 188.733 77.5768C189.065 77.5768 189.365 77.5304 189.632 77.4376C189.904 77.3412 190.138 77.1984 190.334 77.0091C190.53 76.8163 190.682 76.5771 190.789 76.2915L192.01 76.6343C191.882 77.0484 191.666 77.4126 191.362 77.7267C191.059 78.0373 190.684 78.2801 190.238 78.455C189.791 78.6264 189.29 78.7121 188.733 78.7121Z" fill="white"/>
<path d="M178.472 76.8271L181.343 70.3152H182.542L178.986 78.5408H177.958L174.467 70.3152H175.645L178.472 76.8271ZM175.238 70.3152V78.5408H173.974V70.3152H175.238ZM181.707 78.5408V70.3152H182.971V78.5408H181.707Z" fill="white"/>
<path d="M168.317 78.7121C167.575 78.7121 166.923 78.5354 166.363 78.1819C165.806 77.8285 165.37 77.334 165.056 76.6985C164.745 76.063 164.59 75.3205 164.59 74.4708C164.59 73.6139 164.745 72.866 165.056 72.2269C165.37 71.5879 165.806 71.0916 166.363 70.7382C166.923 70.3847 167.575 70.208 168.317 70.208C169.06 70.208 169.71 70.3847 170.267 70.7382C170.827 71.0916 171.263 71.5879 171.573 72.2269C171.887 72.866 172.045 73.6139 172.045 74.4708C172.045 75.3205 171.887 76.063 171.573 76.6985C171.263 77.334 170.827 77.8285 170.267 78.1819C169.71 78.5354 169.06 78.7121 168.317 78.7121ZM168.317 77.5768C168.881 77.5768 169.346 77.4322 169.71 77.143C170.074 76.8538 170.343 76.4736 170.518 76.0024C170.693 75.5311 170.781 75.0206 170.781 74.4708C170.781 73.921 170.693 73.4086 170.518 72.9338C170.343 72.459 170.074 72.0752 169.71 71.7824C169.346 71.4897 168.881 71.3433 168.317 71.3433C167.753 71.3433 167.289 71.4897 166.925 71.7824C166.561 72.0752 166.291 72.459 166.116 72.9338C165.941 73.4086 165.854 73.921 165.854 74.4708C165.854 75.0206 165.941 75.5311 166.116 76.0024C166.291 76.4736 166.561 76.8538 166.925 77.143C167.289 77.4322 167.753 77.5768 168.317 77.5768Z" fill="white"/>
<path d="M157.215 78.5408V70.3152H158.478V73.8925H159.314L162.27 70.3152H163.898L160.578 74.278L163.941 78.5408H162.313L159.614 75.0706H158.478V78.5408H157.215Z" fill="white"/>
<path d="M151.886 78.7121C151.094 78.7121 150.41 78.5372 149.835 78.1873C149.264 77.8338 148.823 77.3412 148.512 76.7092C148.205 76.0738 148.052 75.3347 148.052 74.4922C148.052 73.6496 148.205 72.907 148.512 72.2644C148.823 71.6182 149.255 71.1148 149.808 70.7542C150.365 70.3901 151.015 70.208 151.758 70.208C152.186 70.208 152.609 70.2794 153.027 70.4222C153.444 70.565 153.825 70.7971 154.167 71.1184C154.51 71.4361 154.783 71.8574 154.987 72.3822C155.19 72.907 155.292 73.5532 155.292 74.3208V74.8563H148.951V73.7639H154.007C154.007 73.2998 153.914 72.8856 153.728 72.5215C153.546 72.1573 153.286 71.8699 152.946 71.6593C152.611 71.4486 152.215 71.3433 151.758 71.3433C151.254 71.3433 150.819 71.4683 150.451 71.7182C150.087 71.9645 149.806 72.2858 149.61 72.6821C149.414 73.0784 149.316 73.5033 149.316 73.9567V74.685C149.316 75.3062 149.423 75.8328 149.637 76.2648C149.855 76.6932 150.156 77.0198 150.542 77.2448C150.928 77.4661 151.376 77.5768 151.886 77.5768C152.218 77.5768 152.518 77.5304 152.786 77.4376C153.057 77.3412 153.291 77.1984 153.487 77.0091C153.684 76.8163 153.835 76.5771 153.942 76.2915L155.163 76.6343C155.035 77.0484 154.819 77.4126 154.516 77.7267C154.212 78.0373 153.837 78.2801 153.391 78.455C152.945 78.6264 152.443 78.7121 151.886 78.7121Z" fill="white"/>
<path d="M139.248 81.6253V70.3151H140.469V71.6218H140.619C140.712 71.479 140.84 71.2969 141.004 71.0756C141.172 70.8506 141.411 70.6507 141.722 70.4758C142.036 70.2973 142.461 70.208 142.996 70.208C143.689 70.208 144.3 70.3812 144.828 70.7275C145.356 71.0738 145.769 71.5647 146.065 72.2001C146.361 72.8356 146.509 73.5854 146.509 74.4493C146.509 75.3205 146.361 76.0755 146.065 76.7146C145.769 77.3501 145.358 77.8428 144.833 78.1926C144.308 78.5389 143.703 78.7121 143.018 78.7121C142.489 78.7121 142.066 78.6246 141.749 78.4497C141.431 78.2712 141.186 78.0695 141.015 77.8445C140.844 77.6161 140.712 77.4268 140.619 77.2769H140.512V81.6253H139.248ZM140.49 74.4279C140.49 75.0491 140.581 75.5971 140.763 76.072C140.945 76.5432 141.211 76.9127 141.561 77.1805C141.911 77.4447 142.34 77.5768 142.847 77.5768C143.375 77.5768 143.816 77.4376 144.169 77.1591C144.526 76.877 144.794 76.4986 144.973 76.0238C145.155 75.5454 145.246 75.0134 145.246 74.4279C145.246 73.8496 145.156 73.3283 144.978 72.8642C144.803 72.3965 144.537 72.027 144.18 71.7557C143.827 71.4808 143.382 71.3433 142.847 71.3433C142.332 71.3433 141.9 71.4736 141.551 71.7342C141.201 71.9913 140.936 72.3519 140.758 72.816C140.579 73.2765 140.49 73.8139 140.49 74.4279Z" fill="white"/>
<path d="M128.93 78.7335C128.408 78.7335 127.935 78.6353 127.511 78.439C127.086 78.2391 126.748 77.9517 126.498 77.5768C126.248 77.1984 126.124 76.7414 126.124 76.2059C126.124 75.7346 126.216 75.3526 126.402 75.0598C126.588 74.7635 126.836 74.5315 127.146 74.3637C127.457 74.1959 127.8 74.0709 128.175 73.9888C128.553 73.9031 128.933 73.8353 129.315 73.7853C129.815 73.721 130.22 73.6728 130.531 73.6407C130.845 73.605 131.074 73.5461 131.216 73.464C131.363 73.3819 131.436 73.2391 131.436 73.0356V72.9927C131.436 72.4643 131.291 72.0538 131.002 71.761C130.717 71.4683 130.283 71.3219 129.701 71.3219C129.097 71.3219 128.624 71.454 128.282 71.7182C127.939 71.9824 127.698 72.2644 127.559 72.5643L126.359 72.1359C126.573 71.6361 126.859 71.2469 127.216 70.9684C127.577 70.6864 127.969 70.49 128.394 70.3794C128.823 70.2651 129.244 70.208 129.658 70.208C129.922 70.208 130.226 70.2401 130.568 70.3044C130.915 70.3651 131.248 70.4918 131.57 70.6846C131.895 70.8774 132.164 71.1684 132.378 71.5575C132.593 71.9467 132.7 72.4679 132.7 73.1212V78.5407H131.436V77.4268H131.372C131.286 77.6054 131.143 77.7964 130.943 77.9999C130.743 78.2033 130.477 78.3765 130.145 78.5193C129.813 78.6621 129.408 78.7335 128.93 78.7335ZM129.122 77.5982C129.622 77.5982 130.044 77.5 130.386 77.3037C130.733 77.1073 130.993 76.8538 131.168 76.5432C131.347 76.2326 131.436 75.906 131.436 75.5632V74.4065C131.382 74.4708 131.265 74.5297 131.082 74.5832C130.904 74.6332 130.697 74.6778 130.461 74.7171C130.229 74.7528 130.003 74.7849 129.781 74.8135C129.563 74.8385 129.387 74.8599 129.251 74.8778C128.923 74.9206 128.615 74.9902 128.33 75.0866C128.048 75.1794 127.819 75.3205 127.644 75.5097C127.473 75.6953 127.387 75.9488 127.387 76.2701C127.387 76.7092 127.55 77.0413 127.875 77.2662C128.203 77.4875 128.619 77.5982 129.122 77.5982Z" fill="white"/>
<path d="M118.409 78.5408V70.3152H119.673V73.8925H120.509L123.465 70.3152H125.093L121.773 74.278L125.136 78.5408H123.508L120.809 75.0706H119.673V78.5408H118.409Z" fill="white"/>
<path d="M113.081 78.7121C112.288 78.7121 111.605 78.5372 111.03 78.1873C110.459 77.8338 110.018 77.3412 109.707 76.7092C109.4 76.0738 109.247 75.3347 109.247 74.4922C109.247 73.6496 109.4 72.907 109.707 72.2644C110.018 71.6182 110.45 71.1148 111.003 70.7542C111.56 70.3901 112.21 70.208 112.952 70.208C113.381 70.208 113.804 70.2794 114.222 70.4222C114.639 70.565 115.02 70.7971 115.362 71.1184C115.705 71.4361 115.978 71.8574 116.182 72.3822C116.385 72.907 116.487 73.5532 116.487 74.3208V74.8563H110.146V73.7639H115.202C115.202 73.2998 115.109 72.8856 114.923 72.5215C114.741 72.1573 114.48 71.8699 114.141 71.6593C113.806 71.4486 113.409 71.3433 112.952 71.3433C112.449 71.3433 112.013 71.4683 111.646 71.7182C111.282 71.9645 111.001 72.2858 110.805 72.6821C110.609 73.0784 110.51 73.5033 110.51 73.9567V74.685C110.51 75.3062 110.618 75.8328 110.832 76.2648C111.05 76.6932 111.351 77.0198 111.737 77.2448C112.122 77.4661 112.57 77.5768 113.081 77.5768C113.413 77.5768 113.713 77.5304 113.981 77.4376C114.252 77.3412 114.486 77.1984 114.682 77.0091C114.878 76.8163 115.03 76.5771 115.137 76.2915L116.358 76.6343C116.23 77.0484 116.014 77.4126 115.71 77.7267C115.407 78.0373 115.032 78.2801 114.586 78.455C114.139 78.6264 113.638 78.7121 113.081 78.7121Z" fill="white"/>
<path d="M100.443 81.6253V70.3151H101.664V71.6218H101.814C101.906 71.479 102.035 71.2969 102.199 71.0756C102.367 70.8506 102.606 70.6507 102.917 70.4758C103.231 70.2973 103.656 70.208 104.191 70.208C104.884 70.208 105.494 70.3812 106.023 70.7275C106.551 71.0738 106.963 71.5647 107.26 72.2001C107.556 72.8356 107.704 73.5854 107.704 74.4493C107.704 75.3205 107.556 76.0755 107.26 76.7146C106.963 77.3501 106.553 77.8428 106.028 78.1926C105.503 78.5389 104.898 78.7121 104.213 78.7121C103.684 78.7121 103.261 78.6246 102.944 78.4497C102.626 78.2712 102.381 78.0695 102.21 77.8445C102.038 77.6161 101.906 77.4268 101.814 77.2769H101.706V81.6253H100.443ZM101.685 74.4279C101.685 75.0491 101.776 75.5971 101.958 76.072C102.14 76.5432 102.406 76.9127 102.756 77.1805C103.106 77.4447 103.534 77.5768 104.041 77.5768C104.57 77.5768 105.011 77.4376 105.364 77.1591C105.721 76.877 105.989 76.4986 106.167 76.0238C106.349 75.5454 106.44 75.0134 106.44 74.4279C106.44 73.8496 106.351 73.3283 106.173 72.8642C105.998 72.3965 105.732 72.027 105.375 71.7557C105.021 71.4808 104.577 71.3433 104.041 71.3433C103.527 71.3433 103.095 71.4736 102.745 71.7342C102.395 71.9913 102.131 72.3519 101.953 72.816C101.774 73.2765 101.685 73.8139 101.685 74.4279Z" fill="white"/>
<path d="M90.5449 78.7121C89.8023 78.7121 89.1507 78.5354 88.5902 78.1819C88.0333 77.8285 87.5977 77.334 87.2835 76.6985C86.9729 76.063 86.8176 75.3205 86.8176 74.4708C86.8176 73.6139 86.9729 72.866 87.2835 72.2269C87.5977 71.5879 88.0333 71.0916 88.5902 70.7382C89.1507 70.3847 89.8023 70.208 90.5449 70.208C91.2874 70.208 91.9372 70.3847 92.4942 70.7382C93.0547 71.0916 93.4902 71.5879 93.8008 72.2269C94.115 72.866 94.2721 73.6139 94.2721 74.4708C94.2721 75.3205 94.115 76.063 93.8008 76.6985C93.4902 77.334 93.0547 77.8285 92.4942 78.1819C91.9372 78.5354 91.2874 78.7121 90.5449 78.7121ZM90.5449 77.5768C91.1089 77.5768 91.5731 77.4322 91.9372 77.143C92.3014 76.8538 92.5709 76.4736 92.7459 76.0024C92.9208 75.5311 93.0083 75.0206 93.0083 74.4708C93.0083 73.921 92.9208 73.4086 92.7459 72.9338C92.5709 72.459 92.3014 72.0752 91.9372 71.7824C91.5731 71.4897 91.1089 71.3433 90.5449 71.3433C89.9808 71.3433 89.5167 71.4897 89.1525 71.7824C88.7883 72.0752 88.5188 72.459 88.3439 72.9338C88.1689 73.4086 88.0815 73.921 88.0815 74.4708C88.0815 75.0206 88.1689 75.5311 88.3439 76.0024C88.5188 76.4736 88.7883 76.8538 89.1525 77.143C89.5167 77.4322 89.9808 77.5768 90.5449 77.5768Z" fill="white"/>
<path d="M79.1035 71.4933V70.3152H85.7868V71.4933H83.0878V78.5408H81.824V71.4933H79.1035Z" fill="white"/>
<path d="M74.6691 78.7121C73.898 78.7121 73.2339 78.53 72.677 78.1659C72.12 77.8017 71.6916 77.3001 71.3917 76.661C71.0918 76.022 70.9419 75.2919 70.9419 74.4708C70.9419 73.6353 71.0954 72.8981 71.4024 72.2591C71.713 71.6164 72.145 71.1148 72.6984 70.7542C73.2553 70.3901 73.9051 70.208 74.6477 70.208C75.2261 70.208 75.7473 70.3151 76.2114 70.5293C76.6755 70.7435 77.0558 71.0434 77.3521 71.429C77.6484 71.8146 77.8323 72.2644 77.9037 72.7785H76.6398C76.5435 72.4036 76.3292 72.0716 75.9972 71.7824C75.6688 71.4897 75.2261 71.3433 74.6691 71.3433C74.1764 71.3433 73.7445 71.4718 73.3732 71.7289C73.0054 71.9824 72.718 72.3412 72.511 72.8053C72.3075 73.2658 72.2057 73.8067 72.2057 74.4279C72.2057 75.0634 72.3057 75.6168 72.5056 76.088C72.7091 76.5593 72.9947 76.9252 73.3624 77.1859C73.7337 77.4465 74.1693 77.5768 74.6691 77.5768C74.9976 77.5768 75.2957 77.5197 75.5634 77.4054C75.8312 77.2912 76.0579 77.1269 76.2436 76.9127C76.4292 76.6985 76.5613 76.4415 76.6398 76.1416H77.9037C77.8323 76.6271 77.6556 77.0645 77.3735 77.4536C77.095 77.8392 76.7255 78.1462 76.265 78.3747C75.808 78.5996 75.2761 78.7121 74.6691 78.7121Z" fill="white"/>
<path d="M65.6711 78.7121C64.9285 78.7121 64.2769 78.5354 63.7164 78.1819C63.1595 77.8285 62.7239 77.334 62.4097 76.6985C62.0991 76.063 61.9438 75.3205 61.9438 74.4708C61.9438 73.6139 62.0991 72.866 62.4097 72.2269C62.7239 71.5879 63.1595 71.0916 63.7164 70.7382C64.2769 70.3847 64.9285 70.208 65.6711 70.208C66.4137 70.208 67.0634 70.3847 67.6204 70.7382C68.1809 71.0916 68.6164 71.5879 68.9271 72.2269C69.2412 72.866 69.3983 73.6139 69.3983 74.4708C69.3983 75.3205 69.2412 76.063 68.9271 76.6985C68.6164 77.334 68.1809 77.8285 67.6204 78.1819C67.0634 78.5354 66.4137 78.7121 65.6711 78.7121ZM65.6711 77.5768C66.2352 77.5768 66.6993 77.4322 67.0634 77.143C67.4276 76.8538 67.6971 76.4736 67.8721 76.0024C68.047 75.5311 68.1345 75.0206 68.1345 74.4708C68.1345 73.921 68.047 73.4086 67.8721 72.9338C67.6971 72.459 67.4276 72.0752 67.0634 71.7824C66.6993 71.4897 66.2352 71.3433 65.6711 71.3433C65.107 71.3433 64.6429 71.4897 64.2787 71.7824C63.9146 72.0752 63.645 72.459 63.4701 72.9338C63.2951 73.4086 63.2077 73.921 63.2077 74.4708C63.2077 75.0206 63.2951 75.5311 63.4701 76.0024C63.645 76.4736 63.9146 76.8538 64.2787 77.143C64.6429 77.4322 65.107 77.5768 65.6711 77.5768Z" fill="white"/>
<path d="M53.1399 81.6253V70.3151H54.3609V71.6218H54.5108C54.6037 71.479 54.7322 71.2969 54.8964 71.0756C55.0642 70.8506 55.3034 70.6507 55.614 70.4758C55.9282 70.2973 56.353 70.208 56.8885 70.208C57.5812 70.208 58.1917 70.3812 58.72 70.7275C59.2484 71.0738 59.6608 71.5647 59.9571 72.2001C60.2534 72.8356 60.4016 73.5854 60.4016 74.4493C60.4016 75.3205 60.2534 76.0755 59.9571 76.7146C59.6608 77.3501 59.2502 77.8428 58.7254 78.1926C58.2006 78.5389 57.5954 78.7121 56.91 78.7121C56.3816 78.7121 55.9585 78.6246 55.6408 78.4497C55.323 78.2712 55.0785 78.0695 54.9071 77.8445C54.7357 77.6161 54.6037 77.4268 54.5108 77.2769H54.4037V81.6253H53.1399ZM54.3823 74.4279C54.3823 75.0491 54.4733 75.5971 54.6554 76.072C54.8375 76.5432 55.1035 76.9127 55.4533 77.1805C55.8032 77.4447 56.2316 77.5768 56.7386 77.5768C57.267 77.5768 57.7079 77.4376 58.0613 77.1591C58.4184 76.877 58.6861 76.4986 58.8646 76.0238C59.0467 75.5454 59.1377 75.0134 59.1377 74.4279C59.1377 73.8496 59.0485 73.3283 58.87 72.8642C58.695 72.3965 58.4291 72.027 58.0721 71.7557C57.7186 71.4808 57.2741 71.3433 56.7386 71.3433C56.2245 71.3433 55.7925 71.4736 55.4426 71.7342C55.0928 71.9913 54.8286 72.3519 54.6501 72.816C54.4716 73.2765 54.3823 73.8139 54.3823 74.4279Z" fill="white"/>
<path d="M44.3628 78.5408V70.3152H50.8319V78.5408H49.5681V71.4933H45.6266V78.5408H44.3628Z" fill="white"/>
<path d="M35.0392 78.7121C34.2681 78.7121 33.604 78.53 33.0471 78.1659C32.4902 77.8017 32.0617 77.3001 31.7619 76.661C31.462 76.022 31.312 75.2919 31.312 74.4708C31.312 73.6353 31.4655 72.8981 31.7726 72.2591C32.0832 71.6164 32.5152 71.1148 33.0685 70.7542C33.6255 70.3901 34.2752 70.208 35.0178 70.208C35.5962 70.208 36.1174 70.3151 36.5815 70.5293C37.0457 70.7435 37.4259 71.0434 37.7222 71.429C38.0185 71.8146 38.2024 72.2644 38.2738 72.7785H37.01C36.9136 72.4036 36.6994 72.0716 36.3673 71.7824C36.0389 71.4897 35.5962 71.3433 35.0392 71.3433C34.5466 71.3433 34.1146 71.4718 33.7433 71.7289C33.3756 71.9824 33.0882 72.3412 32.8811 72.8053C32.6776 73.2658 32.5758 73.8067 32.5758 74.4279C32.5758 75.0634 32.6758 75.6168 32.8757 76.088C33.0792 76.5593 33.3648 76.9252 33.7326 77.1859C34.1039 77.4465 34.5394 77.5768 35.0392 77.5768C35.3677 77.5768 35.6658 77.5197 35.9336 77.4054C36.2013 77.2912 36.428 77.1269 36.6137 76.9127C36.7993 76.6985 36.9314 76.4415 37.01 76.1416H38.2738C38.2024 76.6271 38.0257 77.0645 37.7436 77.4536C37.4652 77.8392 37.0956 78.1462 36.6351 78.3747C36.1781 78.5996 35.6462 78.7121 35.0392 78.7121Z" fill="white"/>
<path d="M25.6206 78.7335C25.0993 78.7335 24.6263 78.6353 24.2015 78.439C23.7766 78.2391 23.4392 77.9517 23.1893 77.5768C22.9394 77.1984 22.8145 76.7414 22.8145 76.2059C22.8145 75.7346 22.9073 75.3526 23.0929 75.0598C23.2786 74.7635 23.5267 74.5315 23.8373 74.3637C24.1479 74.1959 24.4906 74.0709 24.8655 73.9888C25.2439 73.9031 25.6242 73.8353 26.0062 73.7853C26.506 73.721 26.9112 73.6728 27.2218 73.6407C27.536 73.605 27.7645 73.5461 27.9073 73.464C28.0536 73.3819 28.1268 73.2391 28.1268 73.0356V72.9927C28.1268 72.4643 27.9822 72.0538 27.6931 71.761C27.4074 71.4683 26.9737 71.3219 26.3917 71.3219C25.7884 71.3219 25.3153 71.454 24.9726 71.7182C24.6299 71.9824 24.3889 72.2644 24.2497 72.5643L23.0501 72.1359C23.2643 71.6361 23.5499 71.2469 23.9069 70.9684C24.2675 70.6864 24.6602 70.49 25.0851 70.3794C25.5135 70.2651 25.9348 70.208 26.3489 70.208C26.6131 70.208 26.9166 70.2401 27.2593 70.3044C27.6056 70.3651 27.9394 70.4918 28.2607 70.6846C28.5856 70.8774 28.8551 71.1684 29.0693 71.5575C29.2836 71.9467 29.3907 72.4679 29.3907 73.1212V78.5407H28.1268V77.4268H28.0626C27.9769 77.6054 27.8341 77.7964 27.6341 77.9999C27.4342 78.2033 27.1682 78.3765 26.8362 78.5193C26.5042 78.6621 26.099 78.7335 25.6206 78.7335ZM25.8134 77.5982C26.3132 77.5982 26.7345 77.5 27.0772 77.3037C27.4235 77.1073 27.6841 76.8538 27.8591 76.5432C28.0376 76.2326 28.1268 75.906 28.1268 75.5632V74.4065C28.0733 74.4708 27.9555 74.5297 27.7734 74.5832C27.5949 74.6332 27.3878 74.6778 27.1522 74.7171C26.9201 74.7528 26.6934 74.7849 26.4721 74.8135C26.2543 74.8385 26.0776 74.8599 25.9419 74.8778C25.6134 74.9206 25.3064 74.9902 25.0208 75.0866C24.7388 75.1794 24.5103 75.3205 24.3353 75.5097C24.164 75.6953 24.0783 75.9488 24.0783 76.2701C24.0783 76.7092 24.2407 77.0413 24.5656 77.2662C24.8941 77.4875 25.31 77.5982 25.8134 77.5982Z" fill="white"/>
<path d="M19.9285 73.8496V75.0278H15.3873V73.8496H19.9285ZM15.6872 70.3152V78.5408H14.4233V70.3152H15.6872ZM20.8924 70.3152V78.5408H19.6286V70.3152H20.8924Z" fill="white"/>
<path d="M1.52088 78.6907V77.4483H2.20635C2.47054 77.4483 2.69189 77.3965 2.8704 77.293C3.05247 77.1894 3.20242 77.0555 3.32024 76.8913C3.44162 76.7271 3.54158 76.5557 3.62013 76.3772L3.79149 75.9702L0 67.5732H1.4352L4.45554 74.3851L7.21883 67.5732H8.63261L4.84112 76.7628C4.69117 77.1055 4.5198 77.4233 4.32702 77.716C4.1378 78.0088 3.87896 78.2444 3.55051 78.4229C3.22563 78.6014 2.78471 78.6907 2.22777 78.6907H1.52088Z" fill="white"/>
</svg>
