<svg width="24" height="25" viewBox="0 0 24 25" fill="none" xmlns="http://www.w3.org/2000/svg">
<path d="M14.9938 12.5L23.3736 4.12021C23.7713 3.72321 23.995 3.18448 23.9955 2.62254C23.996 2.0606 23.7732 1.52148 23.3762 1.12378C22.9792 0.726074 22.4405 0.502368 21.8786 0.501872C21.3166 0.501375 20.7775 0.724129 20.3798 1.12113L12 9.50092L3.62021 1.12113C3.22251 0.723428 2.68311 0.5 2.12067 0.5C1.55823 0.5 1.01883 0.723428 0.621131 1.12113C0.223427 1.51883 0 2.05823 0 2.62067C0 3.18311 0.223427 3.72251 0.621131 4.12021L9.00092 12.5L0.621131 20.8798C0.223427 21.2775 0 21.8169 0 22.3793C0 22.9418 0.223427 23.4812 0.621131 23.8789C1.01883 24.2766 1.55823 24.5 2.12067 24.5C2.68311 24.5 3.22251 24.2766 3.62021 23.8789L12 15.4991L20.3798 23.8789C20.7775 24.2766 21.3169 24.5 21.8793 24.5C22.4418 24.5 22.9812 24.2766 23.3789 23.8789C23.7766 23.4812 24 22.9418 24 22.3793C24 21.8169 23.7766 21.2775 23.3789 20.8798L14.9938 12.5Z" fill="#D1D3D8"/>
</svg>
